<svg width="176" height="40" viewBox="0 0 176 40" fill="none" xmlns="http://www.w3.org/2000/svg">
<path d="M52.3016 25.904L55.6616 15.704H59.2376L54.3176 29H50.2376L45.3416 15.704H48.9416L52.3016 25.904ZM77.6368 15.512C79.2688 15.512 80.5808 16.016 81.5728 17.024C82.5808 18.016 83.0848 19.408 83.0848 21.2V29H79.7248V21.656C79.7248 20.616 79.4608 19.824 78.9328 19.28C78.4048 18.72 77.6848 18.44 76.7728 18.44C75.8608 18.44 75.1328 18.72 74.5888 19.28C74.0608 19.824 73.7968 20.616 73.7968 21.656V29H70.4368V21.656C70.4368 20.616 70.1728 19.824 69.6448 19.28C69.1168 18.72 68.3968 18.44 67.4848 18.44C66.5568 18.44 65.8208 18.72 65.2768 19.28C64.7488 19.824 64.4848 20.616 64.4848 21.656V29H61.1248V15.704H64.4848V17.312C64.9168 16.752 65.4688 16.312 66.1408 15.992C66.8288 15.672 67.5808 15.512 68.3968 15.512C69.4368 15.512 70.3648 15.736 71.1808 16.184C71.9968 16.616 72.6288 17.24 73.0768 18.056C73.5088 17.288 74.1328 16.672 74.9488 16.208C75.7808 15.744 76.6768 15.512 77.6368 15.512ZM108.504 15.512C110.136 15.512 111.448 16.016 112.44 17.024C113.448 18.016 113.952 19.408 113.952 21.2V29H110.592V21.656C110.592 20.616 110.328 19.824 109.8 19.28C109.272 18.72 108.552 18.44 107.64 18.44C106.728 18.44 106 18.72 105.456 19.28C104.928 19.824 104.664 20.616 104.664 21.656V29H101.304V21.656C101.304 20.616 101.04 19.824 100.512 19.28C99.9839 18.72 99.2639 18.44 98.3519 18.44C97.4239 18.44 96.6879 18.72 96.1439 19.28C95.6159 19.824 95.3519 20.616 95.3519 21.656V29H91.9919V15.704H95.3519V17.312C95.7839 16.752 96.3359 16.312 97.0079 15.992C97.6959 15.672 98.4479 15.512 99.2639 15.512C100.304 15.512 101.232 15.736 102.048 16.184C102.864 16.616 103.496 17.24 103.944 18.056C104.376 17.288 105 16.672 105.816 16.208C106.648 15.744 107.544 15.512 108.504 15.512ZM123.044 29.216C121.764 29.216 120.612 28.936 119.588 28.376C118.564 27.8 117.756 26.992 117.164 25.952C116.588 24.912 116.3 23.712 116.3 22.352C116.3 20.992 116.596 19.792 117.188 18.752C117.796 17.712 118.62 16.912 119.66 16.352C120.7 15.776 121.86 15.488 123.14 15.488C124.42 15.488 125.58 15.776 126.62 16.352C127.66 16.912 128.476 17.712 129.068 18.752C129.676 19.792 129.98 20.992 129.98 22.352C129.98 23.712 129.668 24.912 129.044 25.952C128.436 26.992 127.604 27.8 126.548 28.376C125.508 28.936 124.34 29.216 123.044 29.216ZM123.044 26.288C123.652 26.288 124.22 26.144 124.748 25.856C125.292 25.552 125.724 25.104 126.044 24.512C126.364 23.92 126.524 23.2 126.524 22.352C126.524 21.088 126.188 20.12 125.516 19.448C124.86 18.76 124.052 18.416 123.092 18.416C122.132 18.416 121.324 18.76 120.668 19.448C120.028 20.12 119.708 21.088 119.708 22.352C119.708 23.616 120.02 24.592 120.644 25.28C121.284 25.952 122.084 26.288 123.044 26.288ZM139.813 15.512C141.397 15.512 142.677 16.016 143.653 17.024C144.629 18.016 145.117 19.408 145.117 21.2V29H141.757V21.656C141.757 20.6 141.493 19.792 140.965 19.232C140.437 18.656 139.717 18.368 138.805 18.368C137.877 18.368 137.141 18.656 136.597 19.232C136.069 19.792 135.805 20.6 135.805 21.656V29H132.445V15.704H135.805V17.36C136.253 16.784 136.821 16.336 137.509 16.016C138.213 15.68 138.981 15.512 139.813 15.512ZM160.672 22.064C160.672 22.544 160.64 22.976 160.576 23.36H150.856C150.936 24.32 151.272 25.072 151.864 25.616C152.456 26.16 153.184 26.432 154.048 26.432C155.296 26.432 156.184 25.896 156.712 24.824H160.336C159.952 26.104 159.216 27.16 158.128 27.992C157.04 28.808 155.704 29.216 154.12 29.216C152.84 29.216 151.688 28.936 150.664 28.376C149.656 27.8 148.864 26.992 148.288 25.952C147.728 24.912 147.448 23.712 147.448 22.352C147.448 20.976 147.728 19.768 148.288 18.728C148.848 17.688 149.632 16.888 150.64 16.328C151.648 15.768 152.808 15.488 154.12 15.488C155.384 15.488 156.512 15.76 157.504 16.304C158.512 16.848 159.288 17.624 159.832 18.632C160.392 19.624 160.672 20.768 160.672 22.064ZM157.192 21.104C157.176 20.24 156.864 19.552 156.256 19.04C155.648 18.512 154.904 18.248 154.024 18.248C153.192 18.248 152.488 18.504 151.912 19.016C151.352 19.512 151.008 20.208 150.88 21.104H157.192ZM175.845 15.704L167.613 35.288H164.037L166.917 28.664L161.589 15.704H165.357L168.789 24.992L172.269 15.704H175.845Z" fill="white"/>
<path d="M34.1422 5.85781C30.3647 2.08031 25.3422 0 20 0C14.6578 0 9.63531 2.08031 5.85781 5.85781C2.08031 9.63531 0 14.6578 0 20C0 25.3422 2.08039 30.3646 5.85781 34.1422C9.63523 37.9198 14.6578 40 20 40C25.3422 40 30.3647 37.9197 34.1422 34.1422C37.9197 30.3647 40 25.3422 40 20C40 14.6578 37.9196 9.63539 34.1422 5.85781Z" fill="#33CC95"/>
<g clip-path="url(#clip0_35212_417)">
<path d="M20.5714 8V33.1429" stroke="white" stroke-width="2" stroke-linecap="round" stroke-linejoin="round"/>
<path d="M26.2857 12.5714H17.7143C16.6534 12.5714 15.636 12.9929 14.8859 13.743C14.1357 14.4931 13.7143 15.5106 13.7143 16.5714C13.7143 17.6323 14.1357 18.6497 14.8859 19.3999C15.636 20.15 16.6534 20.5714 17.7143 20.5714H23.4286C24.4894 20.5714 25.5069 20.9929 26.257 21.743C27.0072 22.4932 27.4286 23.5106 27.4286 24.5714C27.4286 25.6323 27.0072 26.6497 26.257 27.3999C25.5069 28.15 24.4894 28.5714 23.4286 28.5714H13.7143" stroke="white" stroke-width="2" stroke-linecap="round" stroke-linejoin="round"/>
</g>
<defs>
<clipPath id="clip0_35212_417">
<rect width="27.4286" height="27.4286" fill="white" transform="translate(6.85715 6.85714)"/>
</clipPath>
</defs>
</svg>
